<?xml version="1.0" encoding="utf-8"?>
<!-- Generator: Adobe Illustrator 24.0.2, SVG Export Plug-In . SVG Version: 6.00 Build 0)  -->
<svg version="1.1" id="Layer_1" xmlns="http://www.w3.org/2000/svg" xmlns:xlink="http://www.w3.org/1999/xlink" x="0px" y="0px"
	 viewBox="0 0 576 576" style="enable-background:new 0 0 576 576;" xml:space="preserve">
<g>
	<path d="M180.2,244c-0.9-0.2-2-0.4-3.3-0.5s-2.7-0.2-4.2-0.2c-4.6,0-8,0.6-10.2,1.9c-2.2,1.2-3.3,3.1-3.3,5.5
		c0,1.2,0.2,2.3,0.7,3.3c0.4,1,1.1,1.9,2,2.6c0.9,0.7,2,1.3,3.2,1.8c1.3,0.4,2.8,0.7,4.5,0.7c2.2,0,4.1-0.4,5.8-1.2
		c1.7-0.8,3.1-1.6,4.3-2.6c1.4-1.1,2.5-2.4,3.5-3.7v-7.1C182.3,244.3,181.3,244.1,180.2,244z M180.2,244c-0.9-0.2-2-0.4-3.3-0.5
		s-2.7-0.2-4.2-0.2c-4.6,0-8,0.6-10.2,1.9c-2.2,1.2-3.3,3.1-3.3,5.5c0,1.2,0.2,2.3,0.7,3.3c0.4,1,1.1,1.9,2,2.6
		c0.9,0.7,2,1.3,3.2,1.8c1.3,0.4,2.8,0.7,4.5,0.7c2.2,0,4.1-0.4,5.8-1.2c1.7-0.8,3.1-1.6,4.3-2.6c1.4-1.1,2.5-2.4,3.5-3.7v-7.1
		C182.3,244.3,181.3,244.1,180.2,244z M180.2,244c-0.9-0.2-2-0.4-3.3-0.5s-2.7-0.2-4.2-0.2c-4.6,0-8,0.6-10.2,1.9
		c-2.2,1.2-3.3,3.1-3.3,5.5c0,1.2,0.2,2.3,0.7,3.3c0.4,1,1.1,1.9,2,2.6c0.9,0.7,2,1.3,3.2,1.8c1.3,0.4,2.8,0.7,4.5,0.7
		c2.2,0,4.1-0.4,5.8-1.2c1.7-0.8,3.1-1.6,4.3-2.6c1.4-1.1,2.5-2.4,3.5-3.7v-7.1C182.3,244.3,181.3,244.1,180.2,244z M348.8,217.6
		c-0.9-0.3-2-0.5-3.3-0.8c-1.3-0.2-2.9-0.3-4.7-0.3c-2.7,0-5.2,0.5-7.4,1.4c-2.2,0.9-4.1,2.3-5.7,4.1c-1.6,1.8-2.8,4.1-3.7,6.7
		c-0.8,2.7-1.3,5.8-1.3,9.4c0,3.7,0.3,6.8,1,9.3c0.7,2.6,1.6,4.7,2.9,6.3c1.2,1.6,2.8,2.8,4.6,3.5c1.8,0.8,3.8,1.1,5.9,1.1
		c1.2,0,2.4-0.1,3.4-0.4c1-0.3,2-0.6,2.9-1.1c0.9-0.5,1.7-1,2.5-1.6c0.7-0.6,1.4-1.2,2.1-1.8c1.5-1.4,2.7-3,3.7-4.8v-30
		C350.8,218.3,349.9,218,348.8,217.6z M348.8,217.6c-0.9-0.3-2-0.5-3.3-0.8c-1.3-0.2-2.9-0.3-4.7-0.3c-2.7,0-5.2,0.5-7.4,1.4
		c-2.2,0.9-4.1,2.3-5.7,4.1c-1.6,1.8-2.8,4.1-3.7,6.7c-0.8,2.7-1.3,5.8-1.3,9.4c0,3.7,0.3,6.8,1,9.3c0.7,2.6,1.6,4.7,2.9,6.3
		c1.2,1.6,2.8,2.8,4.6,3.5c1.8,0.8,3.8,1.1,5.9,1.1c1.2,0,2.4-0.1,3.4-0.4c1-0.3,2-0.6,2.9-1.1c0.9-0.5,1.7-1,2.5-1.6
		c0.7-0.6,1.4-1.2,2.1-1.8c1.5-1.4,2.7-3,3.7-4.8v-30C350.8,218.3,349.9,218,348.8,217.6z M180.2,244c-0.9-0.2-2-0.4-3.3-0.5
		s-2.7-0.2-4.2-0.2c-4.6,0-8,0.6-10.2,1.9c-2.2,1.2-3.3,3.1-3.3,5.5c0,1.2,0.2,2.3,0.7,3.3c0.4,1,1.1,1.9,2,2.6
		c0.9,0.7,2,1.3,3.2,1.8c1.3,0.4,2.8,0.7,4.5,0.7c2.2,0,4.1-0.4,5.8-1.2c1.7-0.8,3.1-1.6,4.3-2.6c1.4-1.1,2.5-2.4,3.5-3.7v-7.1
		C182.3,244.3,181.3,244.1,180.2,244z M180.2,244c-0.9-0.2-2-0.4-3.3-0.5s-2.7-0.2-4.2-0.2c-4.6,0-8,0.6-10.2,1.9
		c-2.2,1.2-3.3,3.1-3.3,5.5c0,1.2,0.2,2.3,0.7,3.3c0.4,1,1.1,1.9,2,2.6c0.9,0.7,2,1.3,3.2,1.8c1.3,0.4,2.8,0.7,4.5,0.7
		c2.2,0,4.1-0.4,5.8-1.2c1.7-0.8,3.1-1.6,4.3-2.6c1.4-1.1,2.5-2.4,3.5-3.7v-7.1C182.3,244.3,181.3,244.1,180.2,244z M348.8,217.6
		c-0.9-0.3-2-0.5-3.3-0.8c-1.3-0.2-2.9-0.3-4.7-0.3c-2.7,0-5.2,0.5-7.4,1.4c-2.2,0.9-4.1,2.3-5.7,4.1c-1.6,1.8-2.8,4.1-3.7,6.7
		c-0.8,2.7-1.3,5.8-1.3,9.4c0,3.7,0.3,6.8,1,9.3c0.7,2.6,1.6,4.7,2.9,6.3c1.2,1.6,2.8,2.8,4.6,3.5c1.8,0.8,3.8,1.1,5.9,1.1
		c1.2,0,2.4-0.1,3.4-0.4c1-0.3,2-0.6,2.9-1.1c0.9-0.5,1.7-1,2.5-1.6c0.7-0.6,1.4-1.2,2.1-1.8c1.5-1.4,2.7-3,3.7-4.8v-30
		C350.8,218.3,349.9,218,348.8,217.6z M348.8,217.6c-0.9-0.3-2-0.5-3.3-0.8c-1.3-0.2-2.9-0.3-4.7-0.3c-2.7,0-5.2,0.5-7.4,1.4
		c-2.2,0.9-4.1,2.3-5.7,4.1c-1.6,1.8-2.8,4.1-3.7,6.7c-0.8,2.7-1.3,5.8-1.3,9.4c0,3.7,0.3,6.8,1,9.3c0.7,2.6,1.6,4.7,2.9,6.3
		c1.2,1.6,2.8,2.8,4.6,3.5c1.8,0.8,3.8,1.1,5.9,1.1c1.2,0,2.4-0.1,3.4-0.4c1-0.3,2-0.6,2.9-1.1c0.9-0.5,1.7-1,2.5-1.6
		c0.7-0.6,1.4-1.2,2.1-1.8c1.5-1.4,2.7-3,3.7-4.8v-30C350.8,218.3,349.9,218,348.8,217.6z M180.2,244c-0.9-0.2-2-0.4-3.3-0.5
		s-2.7-0.2-4.2-0.2c-4.6,0-8,0.6-10.2,1.9c-2.2,1.2-3.3,3.1-3.3,5.5c0,1.2,0.2,2.3,0.7,3.3c0.4,1,1.1,1.9,2,2.6
		c0.9,0.7,2,1.3,3.2,1.8c1.3,0.4,2.8,0.7,4.5,0.7c2.2,0,4.1-0.4,5.8-1.2c1.7-0.8,3.1-1.6,4.3-2.6c1.4-1.1,2.5-2.4,3.5-3.7v-7.1
		C182.3,244.3,181.3,244.1,180.2,244z M449.1,253.8h-34.4c2.1-6.4,3.2-13.2,3.2-20.3c0-36.3-29.4-65.8-65.7-65.8H129
		c-18.1,0-34.6,7.4-46.5,19.3c-11.9,11.9-19.3,28.3-19.3,46.5c0,36.3,29.4,65.8,65.8,65.8h10l-11.1,14.8c-4.6,6.2,2,14.5,9,11.3
		l58.1-26.1h149.6c-1,4.3-1.5,8.8-1.5,13.5v15.5c0,32.6,26.4,59,59,59h37.1l45,20.2c7.3,3.3,14.1-5.3,9.3-11.7l-13.2-17.5
		c16.7-10.4,32.5-28.3,32.5-49.4v-17.7C512.8,278.7,481.7,253.8,449.1,253.8z M137.7,263.5c-0.3,0.6-0.8,1.2-1.3,1.8
		c-0.3,0.4-0.8,0.7-1.4,1.1c-0.6,0.4-1.4,0.8-2.4,1.1c-1,0.3-2.1,0.6-3.4,0.9c-1.3,0.2-2.8,0.4-4.5,0.4c-5.7,0-9.9-1.3-12.5-4.1
		c-2.7-2.7-4-6.8-4-12.3v-35h-5.8c-1.4,0-2.5-0.4-3.3-1.3c-0.8-0.9-1.2-2.2-1.2-3.8c0-1.7,0.4-2.9,1.2-3.8c0.8-0.9,1.9-1.3,3.3-1.3
		h6.1l1.7-10.9c0.3-2,1-3.4,2-4.4c1-1,2.4-1.4,4.1-1.4c1.7,0,3,0.5,3.9,1.4c0.9,0.9,1.4,2.3,1.4,4.1v11.2H133c1.4,0,2.5,0.4,3.4,1.3
		c0.8,0.9,1.3,2.2,1.3,3.8c0,1.7-0.4,3-1.3,3.8c-0.9,0.9-2,1.3-3.4,1.3h-11.6v32.2c0,3.1,0.5,5.3,1.6,6.6c1.1,1.3,2.7,1.9,4.9,1.9
		c0.8,0,1.6-0.1,2.2-0.2c0.6-0.1,1.2-0.2,1.6-0.4s0.9-0.3,1.3-0.4c0.4-0.1,0.8-0.2,1.2-0.2c0.6,0,1.1,0.1,1.6,0.3
		c0.5,0.2,0.8,0.5,1.2,0.9c0.3,0.4,0.6,0.8,0.8,1.3c0.2,0.5,0.3,1.1,0.3,1.7C138.1,262.1,138,262.9,137.7,263.5z M197.8,265.6
		c-0.3,0.6-0.7,1.1-1.2,1.6c-0.5,0.5-1.1,0.8-1.8,1c-0.7,0.2-1.5,0.4-2.4,0.4c-1.1,0-2-0.2-2.9-0.5c-0.8-0.4-1.6-0.9-2.2-1.6
		c-0.6-0.7-1.1-1.5-1.6-2.5c-0.4-1-0.8-2-1-3.2h-0.2c-1.3,1.6-2.8,3-4.6,4.2c-1.5,1-3.4,2-5.7,2.9s-5,1.3-8,1.3
		c-3.2,0-6.2-0.5-8.7-1.4c-2.6-0.9-4.7-2.2-6.5-3.8c-1.8-1.6-3.1-3.5-4-5.7c-0.9-2.2-1.4-4.6-1.4-7.1c0-2.8,0.6-5.2,1.8-7.4
		c1.2-2.1,2.9-3.9,5.2-5.3c2.2-1.4,4.9-2.5,8.1-3.2c3.2-0.7,6.8-1.1,10.7-1.1c1.9,0,3.5,0.1,5,0.2c1.5,0.1,2.7,0.3,3.8,0.4
		c1.2,0.2,2.2,0.4,3.1,0.6v-6.3c0-2.2-0.2-4.2-0.7-5.8s-1.3-2.9-2.3-3.9c-1.1-1-2.5-1.8-4.2-2.2c-1.8-0.5-3.9-0.7-6.4-0.7
		c-2.4,0-4.5,0.2-6.2,0.6s-3.2,0.8-4.5,1.3c-1.3,0.5-2.4,0.9-3.3,1.2c-0.9,0.4-1.7,0.5-2.5,0.5c-1.3,0-2.3-0.4-3.1-1.2
		c-0.8-0.8-1.2-1.9-1.2-3.4c0-0.8,0.1-1.4,0.4-2c0.2-0.6,0.7-1.2,1.3-1.7c0.6-0.6,1.5-1.2,2.9-1.9c1.3-0.7,3-1.3,4.9-1.9
		c1.9-0.6,4.1-1,6.6-1.5c2.5-0.4,5.1-0.6,7.8-0.6c8,0,14,1.8,18,5.4c4,3.6,6,8.8,6,15.7v21.2c0,2.7,0.1,4.9,0.3,6.5
		c0.2,1.7,0.4,3,0.6,4.1c0.2,1.1,0.4,2,0.6,2.7s0.3,1.4,0.3,2C198.2,264.3,198.1,265,197.8,265.6z M299,213.3
		c-0.1,0.5-0.3,1.5-0.7,2.8l-13.1,43.4c-0.5,1.6-1,3-1.5,4c-0.5,1.1-1.1,2-1.8,2.6c-0.8,0.8-1.8,1.4-2.9,1.8c-1.1,0.4-2.5,0.6-4,0.6
		c-1.5,0-2.8-0.2-3.9-0.5c-1.1-0.4-2.1-0.9-2.8-1.7c-0.7-0.7-1.3-1.6-1.8-2.8c-0.5-1.2-1-2.5-1.5-4.2l-8.6-29.5
		c-0.4-1.4-0.8-2.6-1-3.8c-0.3-1.1-0.5-2.2-0.6-3c-0.2-1-0.3-1.9-0.5-2.8h-0.2c-0.2,0.9-0.3,1.8-0.5,2.8c-0.2,0.9-0.4,1.9-0.7,3
		c-0.3,1.2-0.6,2.4-0.9,3.8l-8.7,29.5c-0.4,1.5-0.9,2.9-1.4,4.1c-0.5,1.2-1.1,2.1-1.8,2.7c-0.8,0.8-1.7,1.4-2.8,1.8
		c-1.1,0.4-2.5,0.6-4.1,0.6c-1.7,0-3.1-0.2-4.2-0.6c-1.1-0.4-2.1-1-2.9-1.7c-0.7-0.6-1.2-1.5-1.7-2.5c-0.5-1-1-2.3-1.5-3.9
		l-13.1-43.1c-0.4-1.3-0.7-2.3-0.8-2.8c-0.1-0.6-0.1-1-0.1-1.4c0-1,0.2-1.8,0.7-2.5c0.5-0.7,1.1-1.3,1.8-1.8
		c0.7-0.5,1.5-0.9,2.3-1.1c0.9-0.2,1.7-0.4,2.5-0.4c1,0,1.8,0.1,2.5,0.4c0.7,0.3,1.3,0.6,1.8,1.1c0.5,0.5,0.9,1.1,1.2,1.9
		c0.3,0.8,0.6,1.9,1,3.2l9.3,33.3c0.4,1.3,0.7,2.5,0.9,3.6c0.2,1.1,0.5,2.1,0.7,2.9c0.2,1,0.3,1.8,0.5,2.6h0.2
		c0.1-0.8,0.3-1.7,0.5-2.6c0.2-0.8,0.4-1.8,0.7-2.8c0.2-1.1,0.6-2.3,1-3.6l9-31.8c0.4-1.5,0.9-2.8,1.4-3.8c0.5-1.1,1.2-1.9,1.9-2.6
		c0.7-0.7,1.6-1.1,2.5-1.4c0.9-0.3,2.1-0.4,3.3-0.4c1.3,0,2.4,0.1,3.4,0.4c1,0.3,1.8,0.8,2.5,1.4c0.7,0.7,1.3,1.5,1.8,2.6
		c0.5,1,1,2.3,1.4,3.9l9.1,31.8c0.3,1.3,0.6,2.5,0.9,3.6c0.3,1.1,0.5,2,0.7,2.8c0.2,1,0.4,1.8,0.5,2.6h0.2c0.2-0.8,0.3-1.7,0.5-2.6
		c0.2-0.8,0.4-1.8,0.7-2.8c0.3-1.1,0.6-2.3,0.9-3.6l8.9-33.4c0.4-1.3,0.7-2.3,0.9-3.2c0.3-0.8,0.6-1.5,1.1-2c0.4-0.5,1-0.8,1.8-1.1
		c0.7-0.3,1.5-0.4,2.5-0.4c0.8,0,1.7,0.1,2.5,0.3c0.8,0.2,1.5,0.6,2.2,1c0.6,0.5,1.2,1,1.6,1.7c0.4,0.7,0.6,1.5,0.6,2.3
		C299.1,212.3,299,212.8,299,213.3z M381.1,291.7c-0.3,0.6-0.8,1.2-1.3,1.8c-0.3,0.4-0.8,0.7-1.4,1.1c-0.6,0.4-1.4,0.8-2.4,1.1
		c-1,0.3-2.1,0.6-3.4,0.9c-1.3,0.2-2.8,0.4-4.5,0.4c-2.3,0-4.4-0.2-6.2-0.7c-2.6-0.7-4.7-1.8-6.3-3.4c-2.7-2.7-4-6.8-4-12.3v-11.1
		c0-1.4,0-2.9,0.1-4.2c0.1-1.4,0.2-2.8,0.3-4.5h-0.2c-1.2,1.6-2.7,3-4.4,4.2c-1.5,1-3.4,2-5.6,2.9c-2.2,0.9-4.9,1.3-8,1.3
		c-3.7,0-7.1-0.6-10.2-1.9c-3.1-1.3-5.7-3.1-7.8-5.6c-2.2-2.5-3.9-5.6-5.1-9.3c-1.2-3.7-1.8-8.1-1.8-13.1c0-5.3,0.8-10,2.3-14.1
		c1.5-4.1,3.7-7.6,6.5-10.5c2.8-2.9,6.3-5,10.4-6.5c4.1-1.5,8.8-2.2,14-2.2c2.9,0,5.5,0.2,7.8,0.5c2.3,0.4,4.4,0.8,6.1,1.4
		c1.8,0.5,3.2,1.1,4.3,1.7c1.2,0.6,2,1.2,2.5,1.7c0.3,0.4,0.6,0.7,0.9,1.1c0.2,0.3,0.5,0.8,0.6,1.2c0.2,0.4,0.3,0.9,0.4,1.5
		c0.1,0.5,0.1,1.2,0.1,2v56.8h0v4c0,3.1,0.5,5.3,1.6,6.6c1.1,1.3,2.7,1.9,4.9,1.9c0.8,0,1.6,0,2.2-0.2c0.6-0.1,1.1-0.2,1.6-0.3
		c0.5-0.2,0.9-0.3,1.3-0.4c0.4-0.1,0.8-0.1,1.2-0.1c0.6,0,1.2,0.1,1.6,0.3c0.5,0.2,0.8,0.5,1.2,0.8c0.3,0.4,0.6,0.8,0.8,1.3
		c0.2,0.5,0.3,1.1,0.3,1.7C381.6,290.3,381.4,291.1,381.1,291.7z M400.9,351.2c0,1.8-0.5,3.1-1.5,4.1c-1,1-2.6,1.5-4.7,1.5
		c-2.1,0-3.7-0.5-4.7-1.5c-1-1-1.5-2.3-1.5-4.1v-46.5c0-1.8,0.5-3.1,1.5-4.1c1-1,2.6-1.4,4.7-1.4c2.1,0,3.7,0.5,4.7,1.4
		c1,0.9,1.5,2.3,1.5,4.1V351.2z M402,285.2c-0.4,0.9-0.9,1.8-1.7,2.4s-1.5,1.2-2.5,1.6c-1,0.4-2.1,0.6-3.2,0.6
		c-1.1,0-2.2-0.2-3.1-0.6c-1-0.4-1.8-0.9-2.5-1.6c-0.7-0.7-1.2-1.5-1.6-2.4c-0.4-0.9-0.6-1.9-0.6-3c0-1.1,0.2-2.1,0.6-3.1
		c0.4-1,0.9-1.8,1.6-2.4s1.5-1.2,2.5-1.6c1-0.4,2.1-0.6,3.3-0.6c1.1,0,2.2,0.2,3.1,0.6c1,0.4,1.8,1,2.5,1.6c0.7,0.7,1.2,1.4,1.6,2.4
		c0.4,0.9,0.6,1.9,0.6,3C402.6,283.3,402.4,284.3,402,285.2z M469.3,351.2c0,1.8-0.5,3.1-1.5,4.1c-1,1-2.6,1.5-4.7,1.5
		c-2.1,0-3.7-0.5-4.7-1.5c-1-1-1.5-2.3-1.5-4.1v-27.8c0-2.6-0.3-4.8-0.8-6.7c-0.5-1.8-1.3-3.4-2.3-4.6c-1-1.2-2.3-2.1-3.8-2.7
		c-1.5-0.6-3.1-0.9-5-0.9c-1.1,0-2.2,0.1-3.2,0.4c-1,0.3-1.9,0.6-2.8,1c-0.9,0.4-1.6,0.9-2.3,1.4c-0.7,0.5-1.3,1.1-1.9,1.6
		c-1.3,1.3-2.5,2.8-3.4,4.5v33.6c0,1.8-0.5,3.1-1.5,4.1c-1,1-2.6,1.5-4.7,1.5s-3.7-0.5-4.7-1.5c-1-1-1.5-2.3-1.5-4.1v-47
		c0-1.6,0.4-2.9,1.3-3.8c0.9-0.9,2.2-1.3,3.8-1.3c0.8,0,1.6,0.1,2.2,0.3c0.6,0.2,1.2,0.5,1.7,1c0.5,0.4,0.8,1,1.1,1.5
		c0.3,0.6,0.5,1.3,0.6,2.1l0.5,3.4h0.2c1.1-1.6,2.5-3.1,4.2-4.4c0.7-0.6,1.5-1.1,2.4-1.6c0.9-0.5,1.9-1,3.1-1.4
		c1.1-0.4,2.3-0.7,3.7-1c1.3-0.2,2.8-0.4,4.3-0.4c3.3,0,6.3,0.5,8.9,1.5c2.6,1,4.9,2.5,6.7,4.4c1.8,2,3.3,4.4,4.2,7.3
		c1,2.9,1.5,6.2,1.5,10V351.2z M345.5,216.8c-1.3-0.2-2.9-0.3-4.7-0.3c-2.7,0-5.2,0.5-7.4,1.4c-2.2,0.9-4.1,2.3-5.7,4.1
		c-1.6,1.8-2.8,4.1-3.7,6.7c-0.8,2.7-1.3,5.8-1.3,9.4c0,3.7,0.3,6.8,1,9.3c0.7,2.6,1.6,4.7,2.9,6.3c1.2,1.6,2.8,2.8,4.6,3.5
		c1.8,0.8,3.8,1.1,5.9,1.1c1.2,0,2.4-0.1,3.4-0.4c1-0.3,2-0.6,2.9-1.1c0.9-0.5,1.7-1,2.5-1.6c0.7-0.6,1.4-1.2,2.1-1.8
		c1.5-1.4,2.7-3,3.7-4.8v-30c-0.8-0.4-1.7-0.8-2.8-1.1C347.9,217.4,346.8,217.1,345.5,216.8z M176.9,243.5c-1.3-0.1-2.7-0.2-4.2-0.2
		c-4.6,0-8,0.6-10.2,1.9c-2.2,1.2-3.3,3.1-3.3,5.5c0,1.2,0.2,2.3,0.7,3.3c0.4,1,1.1,1.9,2,2.6c0.9,0.7,2,1.3,3.2,1.8
		c1.3,0.4,2.8,0.7,4.5,0.7c2.2,0,4.1-0.4,5.8-1.2c1.7-0.8,3.1-1.6,4.3-2.6c1.4-1.1,2.5-2.4,3.5-3.7v-7.1c-0.9-0.2-1.9-0.4-2.9-0.6
		C179.3,243.8,178.2,243.6,176.9,243.5z M180.2,244c-0.9-0.2-2-0.4-3.3-0.5s-2.7-0.2-4.2-0.2c-4.6,0-8,0.6-10.2,1.9
		c-2.2,1.2-3.3,3.1-3.3,5.5c0,1.2,0.2,2.3,0.7,3.3c0.4,1,1.1,1.9,2,2.6c0.9,0.7,2,1.3,3.2,1.8c1.3,0.4,2.8,0.7,4.5,0.7
		c2.2,0,4.1-0.4,5.8-1.2c1.7-0.8,3.1-1.6,4.3-2.6c1.4-1.1,2.5-2.4,3.5-3.7v-7.1C182.3,244.3,181.3,244.1,180.2,244z M348.8,217.6
		c-0.9-0.3-2-0.5-3.3-0.8c-1.3-0.2-2.9-0.3-4.7-0.3c-2.7,0-5.2,0.5-7.4,1.4c-2.2,0.9-4.1,2.3-5.7,4.1c-1.6,1.8-2.8,4.1-3.7,6.7
		c-0.8,2.7-1.3,5.8-1.3,9.4c0,3.7,0.3,6.8,1,9.3c0.7,2.6,1.6,4.7,2.9,6.3c1.2,1.6,2.8,2.8,4.6,3.5c1.8,0.8,3.8,1.1,5.9,1.1
		c1.2,0,2.4-0.1,3.4-0.4c1-0.3,2-0.6,2.9-1.1c0.9-0.5,1.7-1,2.5-1.6c0.7-0.6,1.4-1.2,2.1-1.8c1.5-1.4,2.7-3,3.7-4.8v-30
		C350.8,218.3,349.9,218,348.8,217.6z M348.8,217.6c-0.9-0.3-2-0.5-3.3-0.8c-1.3-0.2-2.9-0.3-4.7-0.3c-2.7,0-5.2,0.5-7.4,1.4
		c-2.2,0.9-4.1,2.3-5.7,4.1c-1.6,1.8-2.8,4.1-3.7,6.7c-0.8,2.7-1.3,5.8-1.3,9.4c0,3.7,0.3,6.8,1,9.3c0.7,2.6,1.6,4.7,2.9,6.3
		c1.2,1.6,2.8,2.8,4.6,3.5c1.8,0.8,3.8,1.1,5.9,1.1c1.2,0,2.4-0.1,3.4-0.4c1-0.3,2-0.6,2.9-1.1c0.9-0.5,1.7-1,2.5-1.6
		c0.7-0.6,1.4-1.2,2.1-1.8c1.5-1.4,2.7-3,3.7-4.8v-30C350.8,218.3,349.9,218,348.8,217.6z M180.2,244c-0.9-0.2-2-0.4-3.3-0.5
		s-2.7-0.2-4.2-0.2c-4.6,0-8,0.6-10.2,1.9c-2.2,1.2-3.3,3.1-3.3,5.5c0,1.2,0.2,2.3,0.7,3.3c0.4,1,1.1,1.9,2,2.6
		c0.9,0.7,2,1.3,3.2,1.8c1.3,0.4,2.8,0.7,4.5,0.7c2.2,0,4.1-0.4,5.8-1.2c1.7-0.8,3.1-1.6,4.3-2.6c1.4-1.1,2.5-2.4,3.5-3.7v-7.1
		C182.3,244.3,181.3,244.1,180.2,244z M180.2,244c-0.9-0.2-2-0.4-3.3-0.5s-2.7-0.2-4.2-0.2c-4.6,0-8,0.6-10.2,1.9
		c-2.2,1.2-3.3,3.1-3.3,5.5c0,1.2,0.2,2.3,0.7,3.3c0.4,1,1.1,1.9,2,2.6c0.9,0.7,2,1.3,3.2,1.8c1.3,0.4,2.8,0.7,4.5,0.7
		c2.2,0,4.1-0.4,5.8-1.2c1.7-0.8,3.1-1.6,4.3-2.6c1.4-1.1,2.5-2.4,3.5-3.7v-7.1C182.3,244.3,181.3,244.1,180.2,244z M180.2,244
		c-0.9-0.2-2-0.4-3.3-0.5s-2.7-0.2-4.2-0.2c-4.6,0-8,0.6-10.2,1.9c-2.2,1.2-3.3,3.1-3.3,5.5c0,1.2,0.2,2.3,0.7,3.3
		c0.4,1,1.1,1.9,2,2.6c0.9,0.7,2,1.3,3.2,1.8c1.3,0.4,2.8,0.7,4.5,0.7c2.2,0,4.1-0.4,5.8-1.2c1.7-0.8,3.1-1.6,4.3-2.6
		c1.4-1.1,2.5-2.4,3.5-3.7v-7.1C182.3,244.3,181.3,244.1,180.2,244z"/>
</g>
</svg>
